<?xml version="1.0" standalone="no"?>
<!DOCTYPE svg PUBLIC "-//W3C//DTD SVG 20010904//EN"
 "http://www.w3.org/TR/2001/REC-SVG-20010904/DTD/svg10.dtd">
<svg version="1.0" xmlns="http://www.w3.org/2000/svg"
 width="300.000000pt" height="293.000000pt" viewBox="0 0 300.000000 293.000000"
 preserveAspectRatio="xMidYMid meet">
<metadata>
Created by potrace 1.10, written by Peter Selinger 2001-2011
</metadata>
<g transform="translate(0.000000,293.000000) scale(0.100000,-0.100000)"
fill="#000000" stroke="none">
<path d="M2171 2848 l-63 -20 6 -52 c5 -48 4 -52 -23 -68 -27 -15 -33 -15 -75
0 -51 19 -43 24 -102 -61 l-27 -38 32 -33 c29 -30 31 -37 24 -67 -8 -29 -15
-35 -54 -44 l-44 -11 0 -74 0 -75 42 -9 c36 -7 44 -14 54 -43 10 -33 9 -37
-20 -67 -17 -18 -31 -35 -31 -39 0 -15 75 -107 87 -107 7 0 28 7 47 16 33 16
35 16 65 -5 24 -17 30 -28 26 -47 -16 -79 -20 -71 50 -94 35 -12 68 -19 72
-17 5 3 8 -27 9 -66 0 -49 7 -86 21 -117 l20 -45 -29 -85 c-28 -83 -30 -86
-78 -109 -28 -13 -57 -32 -66 -42 -15 -17 -19 -15 -77 28 -62 45 -248 143
-274 143 -7 0 -13 4 -13 9 0 24 14 41 35 41 32 0 85 40 106 80 67 125 -73 260
-200 192 -67 -36 -93 -141 -51 -209 15 -25 17 -39 11 -57 -9 -23 -12 -23 -63
-14 -29 6 -110 8 -180 5 -120 -5 -126 -5 -131 15 -3 11 3 34 14 51 12 21 19
50 19 85 0 47 -4 57 -38 93 -114 123 -301 -2 -233 -155 21 -48 69 -86 107 -86
14 0 24 -8 27 -22 4 -12 5 -23 4 -23 -1 -1 -34 -14 -74 -29 -39 -15 -116 -56
-169 -91 l-97 -65 -53 35 c-29 19 -57 35 -63 35 -6 0 -18 26 -26 58 -9 31 -20
69 -25 83 -5 18 -1 46 16 95 37 108 27 239 -24 326 -15 26 -15 28 26 72 23 25
42 48 42 50 0 9 -98 76 -111 76 -8 0 -20 -9 -26 -20 -23 -35 -71 -53 -135 -48
-49 4 -63 9 -92 37 -72 70 -73 196 -2 267 59 59 150 57 217 -3 l40 -36 42 30
c23 17 46 38 51 46 15 24 -40 86 -108 121 -49 25 -68 30 -136 30 -68 0 -87 -5
-143 -33 -97 -47 -146 -116 -168 -234 -9 -50 -9 -79 -1 -122 11 -52 10 -60 -8
-85 -38 -53 -72 -161 -77 -246 -9 -135 28 -243 114 -335 49 -52 131 -99 174
-99 18 0 30 -6 34 -19 9 -28 88 -98 140 -123 25 -12 45 -28 45 -34 0 -16 56
-59 93 -70 20 -7 34 -24 51 -61 l24 -51 -58 -7 -59 -7 -104 -107 c-96 -98
-106 -112 -113 -157 -12 -67 -11 -218 0 -222 5 -2 25 39 44 90 29 79 44 103
97 158 34 36 70 77 79 93 17 25 23 27 80 26 l61 0 -60 -23 c-55 -21 -63 -27
-92 -82 -18 -32 -49 -101 -70 -152 l-37 -94 16 -62 c24 -89 78 -206 96 -206
12 0 13 9 9 48 -21 164 -21 168 5 220 14 27 33 78 43 113 l19 64 122 49 c134
52 184 54 87 2 -69 -37 -117 -70 -155 -104 -25 -23 -28 -33 -28 -91 0 -91 18
-190 40 -225 26 -42 151 -166 167 -166 20 0 16 12 -33 111 -28 56 -44 99 -40
112 4 18 -6 97 -20 140 -3 10 0 17 9 17 7 0 67 40 132 89 l119 89 40 -14 c162
-58 481 -57 644 0 l42 15 108 -80 c59 -45 117 -86 130 -92 21 -10 23 -15 16
-46 -4 -20 -8 -63 -9 -96 -1 -49 -10 -75 -43 -142 -44 -87 -49 -103 -31 -103
20 0 159 147 175 186 10 24 19 83 23 152 l6 113 -35 33 c-45 42 -118 92 -172
116 -33 15 -39 20 -25 26 10 4 58 -12 122 -40 58 -25 112 -46 119 -46 8 0 24
-32 40 -83 14 -46 35 -96 47 -111 20 -26 21 -31 9 -129 -6 -56 -12 -106 -13
-111 -1 -5 4 -11 11 -13 16 -6 69 107 92 196 17 64 17 68 -2 121 -11 30 -40
97 -65 148 -47 96 -57 106 -142 137 l-36 14 65 0 65 0 25 -40 c14 -22 49 -64
79 -92 49 -46 58 -62 87 -147 42 -125 60 -127 57 -6 -4 166 -10 181 -126 300
l-102 105 -61 7 -62 6 22 48 c18 40 29 51 79 74 35 16 62 37 69 51 6 13 24 29
40 34 42 15 119 74 142 109 16 24 27 30 54 30 18 0 62 14 97 31 179 89 277
336 220 556 -17 63 -64 156 -83 163 -6 2 -21 -16 -33 -40 -12 -24 -23 -45 -25
-47 -2 -3 -17 8 -33 23 -28 26 -28 30 -16 60 11 26 21 33 62 41 l48 11 3 63
c2 34 -2 69 -8 76 -6 7 -28 15 -49 19 -32 5 -41 11 -50 38 -10 29 -8 35 19 69
16 21 30 41 30 45 0 16 -73 104 -86 104 -8 0 -29 -7 -46 -16 -28 -15 -33 -14
-62 1 -31 17 -32 20 -28 69 l4 51 -65 22 c-72 23 -71 23 -109 -38 -13 -21 -22
-25 -52 -21 -29 3 -40 11 -58 43 -12 21 -24 39 -27 38 -3 -1 -35 -10 -70 -21z
m84 -58 c24 -38 27 -40 78 -40 50 0 53 1 75 41 17 30 28 39 40 34 9 -3 29 -9
44 -12 25 -5 27 -8 25 -55 -2 -47 0 -51 39 -80 l41 -30 40 21 40 20 31 -38 30
-38 -34 -34 -34 -34 18 -52 c17 -52 30 -63 80 -63 20 0 22 -5 22 -49 l0 -50
-43 -6 c-43 -7 -44 -8 -61 -62 l-18 -55 32 -33 32 -33 -28 -35 -28 -35 -38 19
c-41 21 -44 21 -99 -23 -34 -28 -36 -31 -28 -71 4 -23 7 -43 6 -44 -1 -1 -14
-4 -28 -8 -23 -6 -28 -3 -38 27 -7 18 -14 60 -18 93 l-5 60 37 20 c115 61 168
220 111 340 -47 102 -134 158 -246 159 -284 2 -373 -381 -118 -508 30 -15 69
-26 92 -26 l39 0 -20 -22 c-11 -13 -37 -55 -59 -94 l-38 -72 -43 16 -43 16 6
46 c6 45 5 46 -40 78 l-45 33 -39 -20 -38 -19 -28 34 -27 35 30 38 30 38 -18
49 c-17 45 -23 50 -60 58 -41 9 -41 9 -41 56 l0 48 43 6 c42 6 44 9 60 59 l17
52 -30 36 -29 36 26 36 25 35 45 -19 44 -19 41 33 c39 31 40 34 35 78 -6 46
-6 46 31 56 20 6 40 11 44 12 4 0 19 -17 33 -39z m-1660 -171 c25 -12 57 -35
71 -52 l26 -31 -33 -27 -33 -27 -28 29 c-71 71 -203 61 -271 -20 -77 -92 -53
-257 46 -316 72 -42 183 -31 231 23 l18 21 34 -22 c19 -12 34 -25 34 -29 0 -3
-20 -24 -44 -45 -52 -46 -101 -63 -179 -63 -239 0 -368 263 -230 471 70 107
233 147 358 88z m1842 -34 c184 -92 169 -353 -24 -425 -90 -34 -164 -22 -233
38 -99 84 -115 217 -38 323 62 85 194 114 295 64z m410 -419 c49 -101 55 -267
14 -377 -44 -116 -137 -212 -233 -241 -29 -8 -51 -8 -94 1 -30 7 -53 16 -52
19 36 66 43 93 43 165 0 42 3 77 6 77 4 0 45 43 93 96 80 90 111 137 168 256
13 26 25 48 29 48 3 0 15 -20 26 -44z m-2602 -82 c35 -98 72 -161 141 -242 29
-34 32 -43 35 -124 3 -71 8 -92 27 -117 25 -34 26 -33 -39 -49 -85 -22 -212
69 -271 194 -55 117 -51 252 12 390 l30 67 23 -35 c13 -19 32 -57 42 -84z
m2166 -77 c5 -32 28 -95 50 -139 52 -108 52 -200 0 -267 l-19 -25 -48 32
c-107 69 -149 204 -108 342 18 62 35 92 78 138 l31 33 3 -28 c1 -15 7 -54 13
-86z m-2076 49 c22 -11 73 -21 112 -24 72 -5 73 -5 67 -31 -9 -39 -77 -170
-85 -165 -41 25 -178 261 -141 242 4 -2 25 -12 47 -22z m312 -43 c54 -118 39
-273 -34 -354 -47 -52 -112 -87 -125 -67 -25 35 -38 83 -38 136 0 49 7 73 39
137 22 43 45 99 51 125 11 45 20 54 78 79 2 0 15 -25 29 -56z m1985 41 c17 -9
39 -14 49 -11 11 3 19 3 19 0 0 -7 -139 -162 -165 -185 -25 -22 -31 -22 -38 0
-2 9 -8 24 -12 33 -5 13 2 20 30 29 37 12 37 13 32 59 -5 41 -2 48 21 68 33
27 27 26 64 7z m-1414 -158 c25 -13 79 -64 57 -54 -5 2 -28 12 -49 22 -49 22
-94 15 -136 -21 -47 -39 -48 -19 -3 27 45 44 82 51 131 26z m602 -1 c25 -13
60 -60 60 -81 0 -3 -15 7 -34 24 -53 46 -125 52 -168 14 -10 -8 -18 -10 -18
-4 0 5 14 22 31 36 35 30 84 34 129 11z m-580 -75 c0 -24 -25 -33 -40 -14 -10
11 -10 17 0 28 15 19 40 10 40 -14z m493 14 c-3 -8 4 -28 16 -44 23 -32 18
-42 -16 -29 -15 5 -23 17 -23 33 0 13 -3 31 -6 40 -4 11 0 16 15 16 14 0 19
-5 14 -16z m127 -58 c14 -26 14 -28 -22 -62 -53 -48 -106 -48 -154 0 -38 38
-44 74 -15 100 18 16 18 15 17 -20 -1 -28 5 -41 25 -56 42 -32 99 -3 99 50 0
19 -3 23 -11 15 -6 -6 -18 -9 -25 -6 -17 6 -18 40 -1 46 16 6 68 -34 87 -67z
m-730 43 c-16 -30 4 -74 41 -90 26 -10 34 -9 57 8 15 11 28 30 30 42 2 12 8
19 13 16 19 -12 8 -48 -25 -81 -44 -44 -99 -47 -145 -9 -46 40 -48 61 -10 101
37 38 55 44 39 13z m40 -7 c0 -5 9 -18 20 -30 21 -22 21 -22 1 -22 -11 0 -23
6 -28 13 -12 19 -14 47 -3 47 6 0 10 -4 10 -8z m108 -224 c13 -32 31 -58 38
-58 18 0 18 15 -2 46 -9 13 -13 28 -10 32 10 9 312 9 322 0 3 -4 -1 -19 -10
-33 -16 -24 -14 -45 3 -45 5 0 21 29 37 65 29 64 37 72 62 56 10 -6 8 -20 -12
-66 -29 -63 -31 -75 -16 -75 6 0 18 16 27 35 9 19 19 35 23 35 3 0 55 -24 115
-54 118 -58 211 -124 288 -204 l49 -49 -139 -46 c-407 -135 -769 -135 -1176 0
l-139 46 64 64 c72 74 196 160 289 202 103 46 103 46 122 6 16 -33 27 -42 39
-29 3 3 -7 32 -24 66 -16 33 -28 61 -26 63 21 16 43 22 47 12 2 -7 15 -38 29
-69z m1130 -27 c20 -10 54 -24 75 -30 20 -7 37 -16 37 -21 0 -17 -93 -92 -138
-111 l-47 -21 -41 45 -41 46 23 68 c13 37 24 76 24 87 0 15 5 13 35 -13 20
-17 52 -39 73 -50z m-1745 -14 l25 -77 -42 -47 -42 -46 -62 33 c-56 29 -122
88 -122 108 0 4 27 15 59 25 32 10 81 34 107 52 27 18 50 32 51 31 1 -1 13
-36 26 -79z m103 -118 l44 -30 -47 -55 c-51 -59 -58 -60 -120 -22 -39 24 -41
31 -8 48 13 7 36 30 51 52 15 21 29 38 31 38 2 0 24 -14 49 -31z m1477 2 c9
-16 31 -41 48 -55 36 -31 31 -43 -29 -70 l-38 -17 -52 52 c-29 29 -49 56 -45
59 15 13 88 60 93 60 3 0 13 -13 23 -29z m-1398 -227 c208 -73 405 -107 620
-107 218 0 448 42 652 118 36 14 67 25 69 25 1 0 -11 -26 -29 -57 -18 -32 -63
-90 -102 -129 -124 -125 -298 -191 -537 -201 -349 -15 -616 104 -746 332 -25
44 -28 56 -15 50 10 -4 50 -18 88 -31z m-51 -109 l27 -35 -85 0 c-68 0 -86 3
-86 14 0 8 -3 21 -6 29 -4 12 3 17 28 20 86 10 95 8 122 -28z m1493 21 c2 -2
1 -15 -3 -30 -6 -25 -8 -26 -91 -26 l-84 0 28 36 c28 35 28 36 87 30 33 -3 61
-8 63 -10z m-1675 -88 c-9 -15 -39 -53 -67 -84 -37 -42 -56 -56 -68 -51 -30
11 -19 34 60 117 65 69 78 79 84 64 4 -11 0 -31 -9 -46z m1792 -22 c52 -57 74
-89 70 -100 -14 -37 -49 -13 -123 83 -31 41 -47 70 -44 82 3 11 9 19 13 19 4
0 42 -38 84 -84z m-171 -38 c15 -5 27 -12 27 -14 0 -13 -32 -64 -40 -64 -5 0
-52 19 -105 41 l-96 42 27 28 27 28 66 -26 c36 -13 78 -29 94 -35z m-1343 30
l30 -22 -68 -29 c-37 -16 -84 -35 -104 -42 -36 -13 -37 -13 -57 18 -11 17 -18
33 -16 36 7 6 159 60 173 60 7 1 26 -9 42 -21z m-216 -143 c-9 -44 -64 -184
-74 -190 -5 -3 -19 -1 -30 5 -20 10 -20 11 1 63 11 28 34 83 52 120 28 63 32
67 44 51 9 -12 11 -30 7 -49z m364 49 l32 -15 -78 -58 c-155 -114 -138 -106
-183 -85 -21 11 -39 22 -39 25 0 12 207 144 231 148 3 1 20 -6 37 -15z m962
-19 c71 -40 115 -70 147 -98 l22 -20 -39 -19 -40 -20 -110 77 c-60 43 -110 81
-110 84 0 6 43 27 62 30 3 1 34 -15 68 -34z m306 -17 c50 -98 76 -179 63 -194
-18 -22 -27 -17 -52 34 -39 76 -59 149 -52 182 4 16 8 30 11 30 2 0 16 -23 30
-52z m-1855 -53 c-8 -24 -17 -42 -19 -41 -2 2 0 27 4 55 5 39 10 49 19 41 10
-8 9 -20 -4 -55z m2049 33 c0 -18 3 -44 7 -58 9 -36 -8 -16 -23 26 -13 37 -9
64 7 64 5 0 9 -15 9 -32z m-1682 -186 c25 -111 22 -132 -19 -132 -19 0 -27 29
-36 139 l-6 74 26 -17 c17 -12 28 -32 35 -64z m1349 -28 c-3 -53 -10 -101 -15
-106 -5 -5 -18 -1 -32 10 -23 19 -24 20 -11 93 13 68 29 98 55 99 5 0 6 -42 3
-96z m-1577 -28 c0 -13 3 -39 6 -57 10 -51 -3 -31 -25 39 -18 60 -18 61 0 51
11 -5 19 -20 19 -33z m1785 15 c-3 -10 -12 -38 -20 -62 l-15 -44 6 54 c6 59
10 71 25 71 6 0 8 -8 4 -19z m-1514 -171 c32 -59 26 -64 -17 -12 -44 54 -48
62 -27 62 11 0 28 -18 44 -50z m1239 0 c-23 -27 -44 -50 -46 -50 -2 0 8 22 24
50 17 31 34 50 45 50 15 0 10 -10 -23 -50z"/>
<path d="M2255 2511 c-43 -26 -62 -51 -74 -97 -19 -72 14 -144 82 -175 53 -23
81 -23 133 0 108 49 114 208 12 271 -42 26 -113 26 -153 1z m162 -55 c37 -40
43 -87 18 -136 -22 -43 -53 -60 -108 -60 -42 0 -54 5 -83 34 -28 28 -34 42
-34 75 0 85 50 135 130 127 35 -3 51 -11 77 -40z"/>
<path d="M2862 1965 c0 -16 2 -22 5 -12 2 9 2 23 0 30 -3 6 -5 -1 -5 -18z"/>
<path d="M2851 1915 c-2 -31 -46 -132 -77 -177 -16 -22 -48 -56 -73 -74 -51
-40 -47 -45 7 -9 64 43 161 217 149 264 -4 12 -5 11 -6 -4z"/>
<path d="M2590 1610 c-21 -7 -21 -8 -5 -9 11 0 27 4 35 9 18 11 5 11 -30 0z"/>
<path d="M2528 1593 c6 -2 18 -2 25 0 6 3 1 5 -13 5 -14 0 -19 -2 -12 -5z"/>
<path d="M134 1886 c17 -133 158 -285 266 -285 14 0 -1 8 -36 19 -106 34 -182
121 -219 251 -13 44 -15 47 -11 15z"/>
<path d="M2303 1875 c0 -38 2 -53 4 -32 2 20 2 52 0 70 -2 17 -4 1 -4 -38z"/>
<path d="M2311 1792 c-1 -15 26 -82 33 -82 3 0 -1 15 -8 33 -7 17 -16 39 -19
47 -3 10 -6 10 -6 2z"/>
<path d="M2350 1694 c0 -10 42 -52 70 -70 11 -6 11 -4 -1 7 -9 9 -29 29 -43
45 -14 16 -26 24 -26 18z"/>
<path d="M642 1840 c0 -19 2 -27 5 -17 2 9 2 25 0 35 -3 9 -5 1 -5 -18z"/>
<path d="M631 1793 c-1 -6 -4 -20 -7 -30 -5 -17 -5 -17 6 0 6 10 9 23 6 30 -3
9 -5 9 -5 0z"/>
<path d="M555 1662 c-44 -51 -46 -54 -15 -31 28 21 82 91 68 88 -1 0 -25 -26
-53 -57z"/>
<path d="M1443 1573 c15 -2 37 -2 50 0 12 2 0 4 -28 4 -27 0 -38 -2 -22 -4z"/>
<path d="M1153 1523 c-7 -2 -13 -13 -13 -23 0 -22 -25 -44 -40 -35 -6 4 -15
16 -19 28 -7 17 -8 18 -14 4 -4 -11 2 -22 18 -33 30 -20 59 -6 73 36 6 16 10
30 9 29 -1 0 -8 -3 -14 -6z"/>
<path d="M1797 1523 c-12 -12 -7 -50 8 -63 20 -16 65 2 65 26 0 12 -4 11 -19
-7 -19 -23 -20 -23 -38 -6 -15 14 -16 21 -5 37 11 19 3 28 -11 13z"/>
<path d="M1047 1461 c8 -30 -33 -64 -70 -58 -25 3 -43 -5 -99 -46 -87 -63 -89
-73 -3 -13 46 32 76 46 99 46 55 0 112 63 77 84 -5 4 -7 -3 -4 -13z"/>
<path d="M1889 1475 c-10 -16 -2 -45 17 -66 21 -23 67 -25 85 -2 13 15 12 15
-9 2 -31 -20 -75 5 -82 46 -3 17 -8 26 -11 20z"/>
<path d="M1175 1311 c-9 -16 81 -69 159 -93 56 -17 85 -20 163 -16 85 5 102 9
179 47 46 23 84 46 84 51 0 21 -22 18 -65 -9 -70 -44 -158 -64 -258 -59 -81 4
-116 16 -249 86 -3 2 -9 -2 -13 -7z"/>
<path d="M2429 1494 c-13 -15 -37 -35 -54 -45 -16 -11 -25 -19 -19 -19 13 0
89 54 99 70 14 23 -2 19 -26 -6z"/>
<path d="M480 1506 c19 -24 89 -76 104 -76 6 0 -5 10 -24 21 -19 12 -48 33
-65 48 -16 14 -23 17 -15 7z"/>
<path d="M680 1340 c8 -5 20 -10 25 -10 6 0 3 5 -5 10 -8 5 -19 10 -25 10 -5
0 -3 -5 5 -10z"/>
<path d="M2250 1350 c-8 -5 -10 -10 -5 -10 6 0 17 5 25 10 8 5 11 10 5 10 -5
0 -17 -5 -25 -10z"/>
<path d="M2057 1136 c-79 -62 -149 -98 -262 -137 -44 -16 -72 -28 -63 -29 45
-1 249 83 293 121 47 40 110 98 105 98 -3 0 -36 -24 -73 -53z"/>
<path d="M890 1079 c94 -63 146 -86 270 -118 160 -41 390 -44 511 -6 57 18 42
18 -56 0 -225 -41 -491 2 -680 110 -91 52 -109 58 -45 14z"/>
<path d="M989 863 c-13 -16 -12 -17 4 -4 9 7 17 15 17 17 0 8 -8 3 -21 -13z"/>
<path d="M1920 886 c0 -2 8 -10 18 -17 15 -13 16 -12 3 4 -13 16 -21 21 -21
13z"/>
</g>
</svg>
